/* XPM */
static char *_312d8415d264060bc1d60f12ec775earMW7eOintDVt3tcv[] = {
/* columns rows colors chars-per-pixel */
"64 64 191 2 ",
"   c None",
".  c #340000",
"X  c #3A0000",
"o  c #3C171B",
"O  c #470000",
"+  c #4B0000",
"@  c #5D0000",
"#  c #520000",
"$  c #690000",
"%  c #600000",
"&  c #730000",
"*  c #7B0000",
"=  c #4E3F4A",
"-  c #7D3A76",
";  c #773C7A",
":  c #8A0000",
">  c #810000",
",  c #930000",
"<  c #9A0000",
"1  c #A40000",
"2  c #AB0000",
"3  c #B40000",
"4  c #BB0000",
"5  c #8A1C22",
"6  c #BE1F3E",
"7  c #B81326",
"8  c #C10000",
"9  c #CB0000",
"0  c #D30000",
"q  c #D90000",
"w  c #DE0F1E",
"e  c #DF101F",
"r  c #E20000",
"t  c #EC0000",
"y  c #EE070F",
"u  c #F40000",
"i  c #FF0000",
"p  c #F4060B",
"a  c #FB0709",
"s  c #FA090B",
"d  c #EC0A13",
"f  c #E40E1A",
"g  c #EA0F19",
"h  c #F70E12",
"j  c #FA0D10",
"k  c #F4151B",
"l  c #F91519",
"z  c #F61419",
"x  c #EA1217",
"c  c #CE182F",
"v  c #DA1222",
"b  c #D51829",
"n  c #C71B36",
"m  c #EF1E27",
"M  c #F31C23",
"N  c #FB1B20",
"B  c #EE222C",
"V  c #F92225",
"C  c #F82227",
"Z  c #EA2A36",
"A  c #E72E3B",
"S  c #EB2631",
"D  c #F62C34",
"F  c #F2333D",
"G  c #9E2D5A",
"H  c #98305F",
"J  c #AE274C",
"K  c #B62344",
"L  c #A03A4B",
"P  c #A82A52",
"I  c #8A366D",
"U  c #86356D",
"Y  c #953263",
"T  c #843971",
"R  c #DB2D41",
"E  c #C83648",
"W  c #E23B4B",
"Q  c #E83443",
"!  c #F63943",
"~  c #F63C46",
"^  c #E03F51",
"/  c #AF547B",
"(  c #A54875",
")  c #DE4457",
"_  c #D9495E",
"`  c #F24A57",
"'  c #F44A58",
"]  c #D94D63",
"[  c #DA576D",
"{  c #C25373",
"}  c #D35B74",
"|  c #E94F60",
" . c #E95867",
".. c #CF627E",
"X. c #D4627C",
"o. c #E9626F",
"O. c #E96572",
"+. c #EB6B7C",
"@. c #5E458F",
"#. c #4C4C9E",
"$. c #5C4893",
"%. c #544A99",
"&. c #66448A",
"*. c #694287",
"=. c #724081",
"-. c #6A589E",
";. c #775A9C",
":. c #4A4EA1",
">. c #4D51A3",
",. c #5354A4",
"<. c #5A59A6",
"1. c #5F62AF",
"2. c #6262AD",
"3. c #6B6BB1",
"4. c #7C7DBD",
"5. c #7374B7",
"6. c #845791",
"7. c #93588C",
"8. c #CD6986",
"9. c #CA6B88",
"0. c #C97292",
"q. c #C37A9B",
"w. c #C77393",
"e. c #E36D84",
"r. c #E57E97",
"t. c #E7758B",
"y. c #BF86AA",
"u. c #BC8CB3",
"i. c #B995BE",
"p. c #B793BC",
"a. c #EB8493",
"s. c #C182A5",
"d. c #DC8CA6",
"f. c #D69FB9",
"g. c #E494AA",
"h. c #E99FB1",
"j. c #8A8BC5",
"k. c #8185C3",
"l. c #9495CC",
"z. c #999ACE",
"x. c #9E9ED1",
"c. c #A59FCF",
"v. c #B79BC5",
"b. c #B59FCB",
"n. c #B7A2CB",
"m. c #AFAFDE",
"M. c #A5A5D5",
"N. c #B2A6D2",
"B. c #B0ACDA",
"V. c #B1A9D6",
"C. c #AEB0DF",
"Z. c #B3B3DE",
"A. c #AEB1E0",
"S. c #B2B2E1",
"D. c #BDBDE5",
"F. c #C8ABCD",
"G. c #D7AAC9",
"H. c #DBB7D9",
"J. c #E8ACC0",
"K. c #C3BFE5",
"L. c #D7BFE3",
"P. c #DCC7DE",
"I. c #E7C2D7",
"U. c #C0C1E7",
"Y. c #C3C3E9",
"T. c #C7C9EE",
"R. c #CCCCED",
"E. c #CCC2E4",
"W. c #DAC4E7",
"Q. c #DED3EC",
"!. c #C7C7F4",
"~. c #C6C9F6",
"^. c #CFCFF9",
"/. c #CAC7F2",
"(. c #D9CFF5",
"). c #D6CDF3",
"_. c #CFD1FB",
"`. c #CFD1F2",
"'. c #DADAF6",
"]. c #D7D7FF",
"[. c #D8D6FE",
"{. c #D7D9FF",
"}. c #DADAFE",
"|. c #D5D7F5",
" X c #E7CCE1",
".X c #E7D1E6",
"XX c #E7D3E8",
"oX c #E7DBF1",
"OX c #E4E4FD",
"+X c #E9E9FF",
"@X c #E7E5FB",
/* pixels */
"                                                    X @ * , 1 2 2 1 , * @ X                                                     ",
"                                            . & 2 0 u u i i i i i i i i u t 0 2 & X                                             ",
"                                        & 8 u i i i i i i i i i i i i i i i i i i t 8 &                                         ",
"                                  o , r i i i i i i i i i i i i i i i i i i i i i i i i r , .                                   ",
"                              = |.F.O.N i i i i i i i i i i i i i i i i i i i i i i i i i y 7 >                                 ",
"                            % E (.{.}.H.+.C i i i i i i i i i i i i i i i i i i i i i i i 6 &.w 0 @                             ",
"                          < u ! (.].].{.].H.t.D i i i i i i i i i i i i i i i i i i i i a I :.; d u <                           ",
"                      . 8 i i ! (.].].].].].].W.r.D a i i i i i i i i i i i i i i i i i e $.#.,.E i i 8 .                       ",
"                    O q i i i ! (.].].].].].].].].W.r.l i i i i i i i i i i i i i i i i J #.#.4. .i i i 0 +                     ",
"                  + r i i i i ! (.].].].].].].].].]._.X.i i i i i i i i i i i i i i i p ; :.<.U.+.i i i i r +                   ",
"                + r i i i i i ! (.].].].].].].].].]._.N.W i i i i i i i i i i i i i i b %.#.j.+XO.i i i i i r O                 ",
"              . q i i i i i i ! (.].].].].].].].].].^.S.u.k i i i i i i i i i i i i i H #.2.`.+XO.i i i i i i q .               ",
"              8 i i i i i i i ! (.].].].].].].].].]._.Z.C.8.i i i i i i i i i i i i d *.:.x.+X+XO.i i i i i i i 8               ",
"            < i i i i i i i i ! (.].].].].].].].].]._.S.C.V.W i i i i i i i i i i i n %.3.|.+X+XO.u i i i i i i i <             ",
"          @ u i i i i i i i i ! (.].].].].].].].].].[.D.C.A.u.k i i i i i i i i i a I >.m.+X+X+XO.i i i i i i i i u @           ",
"          0 i i i i i i i i i ! (.].].].].].].].].].].OXD.C.A.8.a i i i i i i i i f @.5.'.+X+X+XO.i i i i i i i i i 0           ",
"        : i i i i i i i i i i ! (.].].].].].].].].].}.+XOXD.C.V.) i i i i i i i i K >.D.+X+X+X+XO.i i i i i i i i i i :         ",
"      . r i i i i i i i i i i ! (.].].].].].].].].].}.+X+XOXD.C.p.M i i i i i i p ; k.OX+X+X+X+XO.i i i i i i i i i i r .       ",
"      , i i i i i i i i i i i ! (.].].].].].].].].].].+X+X+XOXD.B.0.s i i i i i b -.Y.+X+X+X+X+XO.i i i i i i i i i i i ,       ",
"      r i i i i i i i i i i i ! [.].].].].].].].].].}.+X+X+X+XOXU.V.) i i i i i G l.+X+X+X+X+X+XO.i i i i i i i i i i i r       ",
"    & i i i i i i i i i i i i C g.H.).[.].}.].].].].}.+X+X+X+X+XOXY.i.m i i i y ;.R.+X+X+X+X+X+XO.i i i i i i i i i i i i &     ",
"    8 i i i i i i i i i i i i i i l O.[.'.].}.OX}.OXOX+X+X+X+X+X+XOXY.w.s i i n c.@X+X+X+X+X+X+XO.i i i i i i i i i i i i 4     ",
"  X t i i i i i i i i i i i i i i i ` [.].].'.].[.'.'.+X+X+X+X+X+X+XOXK._ i i / '.+X+X+X+X+X+X+XO.i i i i i i i i i i i i u X   ",
"  & i i i i i i i i i i i i i i i i ` ].].].].].].].].].'.OXoXOX+X+X+XOXF.B x F.+X+X+X+X+X+X+X+XO.i i i i i i i i i i i i i &   ",
"  2 i i i i i i i i i i i i i i i i ` [.].].].].].].].].OX+X+XOXOXOXOXOX'.d.[ '.+X+X+X+X+X+X+X+XO.i i i i i i i i i i i i i 2   ",
"  0 i i i i i i i i i i i i i i i i ` [.].].].].].].].}.+X+X+X+X+X+X+XOX+XQ.f.OXOX+XOX+X+X+X+X+XO.i i i i i i i i i i i i i 0   ",
"X t i i i i i i i i i i i i i i i i ` [.].].].].].].].].OX+X+X+X+X+X+X+X+XG.A G.OXOX'.OXOXOX@X+Xo.i i i i i i i i i i i i i t X ",
"% u i i i i i i i i i i i i i i i i ` [.].].].].].].].}.OX+X+XOX+X+X+X+X'.{ u W E.+X+X+XOXOXOXOXg.` V s i i i i i i i i i i u @ ",
"* i i i i i i i i i i i i i i i i i ` [.].].].].].].].}.+X+X+X+X+X+X+X+XN.b i a 8.T.+X+X+X+X+X+X@X@X XJ.a. .F l a i i i i i i * ",
", i i i i i i i i i i i i i i i i i ` [.].].].].].].].].+X+X+X+X+X+X+X|.7.p i i k u.T.+X+X+X+X+X+X+X+X@X+X+XoXI.h.+.j i i i i , ",
"1 i i i i i i i i i i i i i i i i i ` [.].].].].].].].}.+X+X+X+X+X+X+Xz.J i i i i W N.T.@X+X+X+X+X+X+X+X+X+X+X+X+XXXC i i i i 1 ",
"2 i i i i i i i i i i i i i i i i i ` [.].].].].].].].}.+X+X+X+X+X+XR.-.e i i i i i ..C.Y.@X+X+X+X+X+X+X+X+X+X+X+XXXC i i i i 2 ",
"2 i i i i i i i i i i i i i i i i i ' ].].].].].].].].].+X+X+X+X+X+Xj.U a i i i i i k u.A.Y.OX+X+X+X+X+X+X+X+X+X+X XC i i i i 2 ",
"1 i i i i i i i i i i i i i i i i i ' ].].].].].].].].[.+X+X+X+X+XU.<.6 i i i i i i i Q N.C.Y.+X+X+X+X+X+X+X+X+X+X.XC i i i i 1 ",
", i i i i i i i i i i i i i i i i i ' ].].].].].].].].].OX+X+X+XOX4.*.d i i i i i i i i } A.A.Y.OX+X+X+X+X+X+X+X+X.XC i i i i , ",
"* i i i i i i i i i i i i i i i i i ' ].].].].].].].].].+X+X+X+XZ.,.H u i i i i i i i i h y.A.m.Y.OX+X+X+X+X+X+X+X.XC i i i i & ",
"@ u i i i i i i i i i i i i i i i i ` ].].].].].].].].].OX+X+X'.5.%.c i i i i i i i i i i A n.A.B.Y.OX+X+X+X+X+X+X.XC i i i u @ ",
"X t i i i i i i i i i i i i i i i i ` [.].].].].].].].}.+X+X+XM.:.; p i i i i i i i i i i i } m.m.m.Y.OX+X+X+X+X+X.XC i i i t X ",
"  0 i i i i i i i i i i i i i i i i ` [.].].].].].].].].OX+X).3.:.P i i i i i i i i i i i i h s.A.B.C.K.OX+X+X+X+X.XC i i i 0   ",
"  2 i i i i i i i i i i i i i i i i ` ].].].].].].].].}.+X+Xz.:.$.v i i i i i i i i i i i i i Z b.C.C.C.D.OX+X+X+X.XC i i i 2   ",
"  & i i i i i i i i i i i i i i i i ` [.].].].].].].].}.+XR.<.:.T a i i i i i i i i i i i i i i [ C.B.m.m.D.OX+X+X.XV i i i &   ",
"  X t i i i i i i i i i i i i i i i ` [.].].].].].].].].OXj.#.#.K i i i i i i i i i i i i i i i h q.A.C.m.m.D.OX+X.XV i i t X   ",
"    8 i i i i i i i i i i i i i i i ` [.].].].].].].].}.D.,.#.&.g i i i i i i i i i i i i i i i i S v.C.m.m.m.D.OX.XV i i 8     ",
"    & i i i i i i i i i i i i i i i ` [.].].].].].].].[.4.#.:.Y i i i i i i i i i i i i i i i i i i ] m.m.m.m.m.D.P.V i i &     ",
"      r i i i i i i i i i i i i i i ' [.].].].].].].].!.<.#.%.n i i i i i i i i i i i i i i i i i i s q.C.m.C.m.C.n.M i r       ",
"      , i i i i i i i i i i i i i i ` [.].].].].].].].!.2.#.=.h i i i i i i i i i i i i i i i i i i i B v.C.m.m.C.u.h i ,       ",
"      . r i i i i i i i i i i i i i ` ].].].].].].].[.!.2.:.P i i i i i i i i i i i i i i i i i i i i i _ m.C.C.C.9.i r .       ",
"        : i i i i i i i i i i i i i ` ].].].].].].].].!.2.%.v i i i i i i i i i i i i i i 4 1 i i u i i s w.C.C.C._ i :         ",
"          0 i i i i i i i i i i i i ` [.].].].].].].].!.2.- a i i t 8 < 3 2 8 i 0 2 3 u i 1 & u 9 2 > 0 i M v.A.N.Z 0           ",
"          @ u i i i i i i i i i i i ` [.].].].].].].].!.2.K i i 9 2 9 @ 0 9 9 4 4 < * i i , 1 < q u , $ u i ) B.p.x @           ",
"            , i i i i i i i i i i i ` [.].].].].].].].!.;.g i i * 4 9 & u i u $ 0 , < i 9 2 : 4 i i 9 @ u i a 0.q.,             ",
"              8 i i i i i i i i i i ` ].].].].].].].}.~.( u i i 9 t : $ 4 u i 4 t * 3 r 3 r % r i i 8 $ i i i M L               ",
"              . q i i i i i i i i i ` [.].].].].].].]./.R i i i i i & 9 u i u i u $ 2 3 u q # t i i , 2 i i i q .               ",
"                O q i i i i i i i i ` [.].].].].].}.).e.s i i i u 9 : r t 4 3 i t O , t i t + 3 u 9 1 u i i q +                 ",
"                  + r i i i i i i i ' ].].].].].{.W.| a i i i i t < , < < 3 u i t , r i i i 4 > 3 0 u i i r +                   ",
"                    + 0 i i i i i i ` ].].].].].G.F i i i i i i i i i i u i i i i i i i i i i u u i i i q O                     ",
"                      . 8 i i i i i ` ].].].].d.M i i i i i i i i i i i i i i i i i i i i i i i i i i 8 .                       ",
"                          < u i i i ` ].}.).e.j i i i i i i i i i i i i i i i i i i i i i i i i i u ,                           ",
"                            @ 0 i i ' ].W.| a i i i i i i i i i i i i i i i i i i i i i i i i i 0 @                             ",
"                                : r ' G.Q i i i i i i i i i i i i i i i i i i i i i i i i i r :                                 ",
"                                  . 5 b i i i i i i i i i i i i i i i i i i i i i i i i q , .                                   ",
"                                        & 8 t i i i i i i i i i i i i i i i i i i u 4 &                                         ",
"                                            X & 2 0 t u i i i i i i i i u t 0 2 & X                                             ",
"                                                    X @ & , 1 2 2 1 , * @ X                                                     "
};
