/* XPM */
static char *_cc4ed6b8101482ffb5724e108d84ad62HV7SgW8kysBBr8S[] = {
/* columns rows colors chars-per-pixel */
"16 16 132 2 ",
"   c None",
".  c #7A0000",
"X  c #7B0000",
"o  c #6C0910",
"O  c #69242F",
"+  c #7B2025",
"@  c #8E0000",
"#  c #8F0000",
"$  c #8D0303",
"%  c #950001",
"&  c #9A0000",
"*  c #9B0000",
"=  c #A11F3D",
"-  c #C30000",
";  c #C40000",
":  c #C90000",
">  c #CE0000",
",  c #CF0000",
"<  c #D50000",
"1  c #D60000",
"2  c #D80000",
"3  c #DF0000",
"4  c #E10000",
"5  c #E30000",
"6  c #E90000",
"7  c #EA0000",
"8  c #F20000",
"9  c #F60102",
"0  c #F60104",
"q  c #F80000",
"w  c #F90000",
"e  c #F80103",
"r  c #FC0000",
"t  c #FE0000",
"y  c red",
"u  c #FF0101",
"i  c #FC0103",
"p  c #FC0507",
"a  c #FE0406",
"s  c #FE0809",
"d  c #FD0A0C",
"f  c #FE0B0D",
"g  c #E50915",
"h  c #E20A18",
"j  c #F80C10",
"k  c #EC151B",
"l  c #F3181E",
"z  c #FC191E",
"x  c #F31920",
"c  c #DA313E",
"v  c #F92024",
"b  c #F82126",
"n  c #FA2126",
"m  c #F0262D",
"M  c #F9292D",
"N  c #F92B2F",
"B  c #E62B38",
"V  c #FB2D31",
"C  c #BD2C4B",
"Z  c #C42B47",
"A  c #D12C42",
"S  c #E33B4B",
"D  c #9D4474",
"F  c #D7404C",
"G  c #F64249",
"H  c #E54454",
"J  c #E54656",
"K  c #F74C54",
"L  c #F14A58",
"P  c #F14C5A",
"I  c #F34D5B",
"U  c #C05064",
"Y  c #EC6374",
"T  c #EB677A",
"R  c #EC6F7D",
"E  c #986698",
"W  c #BC799C",
"Q  c #9075AD",
"!  c #D06682",
"~  c #D1708C",
"^  c #C37999",
"/  c #EB6C80",
"(  c #F57681",
")  c #F37883",
"_  c #E07C91",
"`  c #BE8EB5",
"'  c #E3839D",
"]  c #CE9CB8",
"[  c #DF9AB0",
"{  c #CEA3C2",
"}  c #D8A2C3",
"|  c #DFB7CF",
" . c #C5B3D6",
".. c #C3B9DF",
"X. c #EDB2C2",
"o. c #BEC4ED",
"O. c #C0C0E7",
"+. c #DCC0E3",
"@. c #DBC3E7",
"#. c #DDC9E3",
"$. c #D8C9E5",
"%. c #DCC5EA",
"&. c #D4CDEB",
"*. c #CBC7F3",
"=. c #C5C9F7",
"-. c #CED2FA",
";. c #D7D4FA",
":. c #D3D4FC",
">. c #D7D6FE",
",. c #D8D7FE",
"<. c #D8D7FF",
"1. c #D6D8FF",
"2. c #D7D9FF",
"3. c #D7DAFF",
"4. c #D8D8FD",
"5. c #D9D9FF",
"6. c #DBDBFF",
"7. c #DDDDFE",
"8. c #DCDDFF",
"9. c #EBD2E6",
"0. c #E4D8EF",
"q. c #E5D8EF",
"w. c #EADAEF",
"e. c #E8DCF0",
"r. c #E2E3FB",
"t. c #E2E6FE",
"y. c #E2E6FF",
"u. c #E6E6FC",
"i. c #E6E6FF",
"p. c #E6E9FF",
"a. c #E8E9FF",
"s. c #E9F0FF",
/* pixels */
"          @ , 7 7 , @           ",
"      + ] Y z t t t t = o       ",
"    * b %.3.} x t t g E m *     ",
"  X t b @.3.-.~ p t Z  .V t X   ",
"  5 t b +.,.7.&.H e ^ q.V t 5   ",
"@ t t s R 4.7.p.X.J #.e.M t t @ ",
", t t t L >.4.i.y.[ 0.e.G f t , ",
"7 t t t L >.4.a.&.B _ r.9.X.K 7 ",
"7 t t t I >.4.r.W 0 l { t.s.) 7 ",
"< t t t I >.6.o.C t t S ..t.( < ",
"@ t t t L >.:.Q h t t p ! o.R @ ",
"  5 t t L 3.=.D 9 9 e 8 k ` U   ",
"  X e t I >.*.A : , ; - , c O   ",
"    * t I >.' j 1 3 1 1 3 %     ",
"      X F T f t t t t 5 X       ",
"          @ , 7 7 , @           "
};
