/* XPM */
static char *ad2dd187fb3b47a3bc64b8adf82d22e8fsDr07CiAhPqTT8y[] = {
/* columns rows colors chars-per-pixel */
"32 32 154 2 ",
"   c None",
".  c #1A0000",
"X  c #1B0B0F",
"o  c #240000",
"O  c #3C0000",
"+  c #260C10",
"@  c #520000",
"#  c #580000",
"$  c #610000",
"%  c #6C0000",
"&  c #730000",
"*  c #703D78",
"=  c #7D3F7C",
"-  c #78407F",
";  c #605772",
":  c #950000",
">  c #9F0000",
",  c #A50000",
"<  c #AD0000",
"1  c #A9060A",
"2  c #B60000",
"3  c #BA0000",
"4  c #B70A0C",
"5  c #AC1D36",
"6  c #BF1932",
"7  c #AC2329",
"8  c #A0213C",
"9  c #C40000",
"0  c #CE0000",
"q  c #D30000",
"w  c #DA0000",
"e  c #C50A12",
"r  c #E40000",
"t  c #EA0000",
"y  c #EB090F",
"u  c #F50000",
"i  c #FF0000",
"p  c #FB0A0C",
"a  c #F7070A",
"s  c #ED0A12",
"d  c #E50E1A",
"f  c #F60D11",
"g  c #FA0D11",
"h  c #E0101E",
"j  c #F1131A",
"k  c #FC1214",
"l  c #DA1B24",
"z  c #F21920",
"x  c #F91F23",
"c  c #E9232E",
"v  c #F2232B",
"b  c #F9252B",
"n  c #F92327",
"m  c #E82936",
"M  c #F92D31",
"N  c #942F5D",
"B  c #AF284D",
"V  c #B72648",
"C  c #BD2342",
"Z  c #A92E55",
"A  c #E33544",
"S  c #E03A4B",
"D  c #F13E4A",
"F  c #BB4365",
"G  c #BD4D6D",
"H  c #C0425C",
"J  c #DA4358",
"K  c #F24A54",
"L  c #D44B62",
"P  c #CE5E7A",
"I  c #E65561",
"U  c #E26775",
"Y  c #EF6475",
"T  c #E26876",
"R  c #E7697C",
"E  c #4F4D9E",
"W  c #534997",
"Q  c #544D9C",
"!  c #634287",
"~  c #724688",
"^  c #4A4DA0",
"/  c #4D50A3",
"(  c #5959A6",
")  c #615EA9",
"_  c #6A6EB4",
"`  c #7F7FBE",
"'  c #A77091",
"]  c #9877AC",
"[  c #9572A6",
"{  c #D66C88",
"}  c #D36B86",
"|  c #C67090",
" . c #C3779A",
".. c #E96E83",
"X. c #E77282",
"o. c #E97A8C",
"O. c #EC7385",
"+. c #BD86AB",
"@. c #BB92B9",
"#. c #D78099",
"$. c #E08699",
"%. c #EB8999",
"&. c #C589AA",
"*. c #CF8DAA",
"=. c #D58AA4",
"-. c #E08EA9",
";. c #E093AF",
":. c #E499B4",
">. c #E497B2",
",. c #DFA3B9",
"<. c #E3AABF",
"1. c #E1A2B5",
"2. c #9191C8",
"3. c #9898CD",
"4. c #B797C0",
"5. c #B29FCB",
"6. c #BF9BC4",
"7. c #A6A7D5",
"8. c #AFADDB",
"9. c #B0A6D3",
"0. c #B2A9D0",
"q. c #B3B5E3",
"w. c #B6B8E4",
"e. c #BCBDE5",
"r. c #CEA8C5",
"t. c #CCADCC",
"y. c #DFAAC9",
"u. c #E7B5CA",
"i. c #E6B8CD",
"p. c #C0BEE5",
"a. c #C1C1E6",
"s. c #CEC6E4",
"d. c #C7C8EB",
"f. c #CBCCEE",
"g. c #DEC3E0",
"h. c #DCC5E8",
"j. c #D8C7E2",
"k. c #C7CCF9",
"l. c #D7CCF3",
"z. c #D3D4F4",
"x. c #D7D9F6",
"c. c #DDDDF7",
"v. c #D6D7FF",
"b. c #D7D8FF",
"n. c #D8D9FE",
"m. c #E5CEE4",
"M. c #E2D0E7",
"N. c #E7D8EE",
"B. c #E6DEF4",
"V. c #DBE0FD",
"C. c #E6E0F6",
"Z. c #E4E5FD",
"A. c #E9EAFF",
"S. c #E9E2F8",
/* pixels */
"                        o # % % & % @ o                         ",
"                  o $ < q t i i i u t q 2 # o                   ",
"              . & q i i i i i i i i i i i i 0 & .               ",
"            O 4 v i i i i i i i i i i i u i i i 3 O             ",
"          # w n y.-.K g i u r 0 w t 0 u 2 0 q 0 a e #           ",
"        # r i b h.b.l.=.v 9 , 3 q 2 , w 2 < t , 5 N w #         ",
"      O w i i b h.b.b.v.} t < 9 t w : q 3 3 u 1 * ! s w O       ",
"    . 3 i i i b h.b.v.v.6.l < 9 q u : t w , q 8 Q W 6 i 3 .     ",
"    & i i i i b h.b.v.v.w.L u t i i u i i t s = ^ ( H i i %     ",
"  o 0 i i i i b h.b.v.v.w.+.f i i i i i i i C E ( 7.U i i 0 o   ",
"  $ i i i i i b h.n.v.v.e.9.S i i i i i i s ~ ^ 3.V.T i i i $   ",
"  < i i i i i b h.v.v.v.z.q.| p i i i i i V / ] c.A.U i i i <   ",
"o q i i i i i b h.v.v.n.Z.d.5.c i i i i s ~ _ f.A.Z.U i i i q o ",
"@ t i i i i i b h.n.v.v.Z.S.w.P i i i i Z ) e.A.A.Z.U i i i r @ ",
"% u i i i i i b h.n.v.n.Z.A.x.@.z i i d ~ 7.A.A.A.Z.U i i i i $ ",
"% i i i i i i b h.v.v.v.Z.A.Z.a.J i i Z 2.C.A.A.A.Z.U i i i i % ",
"& i i i i i i b h.b.b.b.Z.A.A.V.&.p d [ c.A.A.A.A.Z.T i i i i % ",
"% u i i i i i b h.n.v.n.Z.A.A.A.s.A H d.A.A.A.A.S.M.I i i i u % ",
"@ r i i i i i b h.b.b.b.Z.A.A.A.Z.*.t.S.m.i.1.#.K n p i i i t @ ",
"o q i i i i i k Y O...X.R X.o.%.y.=.j.S.m.i.<.,.n i i i i i 0 o ",
"  < i i i i i i i i i i i o.g.N.r.c #.Z.A.A.A.S.M i i i i i <   ",
"  $ i i i i i i i i i i i :.n.f.G i A s.A.A.A.C.M i i i i i $   ",
"  o 0 i i i i i i i i i i >.v.] h i f &.V.A.A.B.M i i i i 0 o   ",
"    & u i i i i i i i i i :.k.F i i i L a.Z.A.B.M i i i u &     ",
"    . 2 i i i i i i i i i R { j i i i z @.z.A.B.M i i i 2 .     ",
"      O w i i i i i i i i i i i i i i p P q.C.B.M i i w O       ",
"        # r i i i i i i i i i i i i i i m 5.a.B.M i r #         ",
"          # w i i i i i i i i i i i i i p ' 8.s.M w #           ",
"            O 3 i i i i i i i i i i i i i S 8.0.7 O             ",
"              . & q i i i i i i i i i i i j ' ; X               ",
"                  o $ < q t u i i i t q < $ +                   ",
"                        o @ % & % % @ o                         "
};
